<svg width="68" height="39" viewBox="0 0 68 39" fill="none" xmlns="http://www.w3.org/2000/svg">
<path d="M37.4 36.4565C37.4 35.0525 36.2576 33.913 34.85 33.913H2.55C1.1424 33.913 0 35.0525 0 36.4565C0 37.8605 1.1424 39 2.55 39H34.85C36.2576 39 37.4 37.8605 37.4 36.4565ZM68 19.5C68 18.096 66.8576 16.9565 65.45 16.9565H2.55C1.1424 16.9565 0 18.096 0 19.5C0 20.904 1.1424 22.0435 2.55 22.0435H65.45C66.8576 22.0435 68 20.904 68 19.5ZM54.4 2.54348C54.4 1.13948 53.2576 0 51.85 0H2.55C1.1424 0 0 1.13948 0 2.54348C0 3.94748 1.1424 5.08696 2.55 5.08696H51.85C53.2576 5.08696 54.4 3.94748 54.4 2.54348Z" fill="black"/>
</svg>
